<svg width="65" height="65" viewBox="0 0 65 65" fill="none" xmlns="http://www.w3.org/2000/svg">
<path d="M42.6562 8.125C39.0142 8.125 35.7134 8.8075 33.1338 10.0933C30.5561 11.3791 28.4375 13.4733 28.4375 16.25V24.375C28.4375 24.637 28.5248 24.8909 28.5655 25.1367C26.5322 24.6201 24.4416 24.3641 22.3438 24.375C18.7017 24.375 15.4009 25.0575 12.8212 26.3433C10.2436 27.6291 8.125 29.7233 8.125 32.5V48.75C8.125 51.5267 10.2436 53.6209 12.8233 54.9067C15.4009 56.1925 18.7017 56.875 22.3438 56.875C25.9858 56.875 29.2866 56.1925 31.8662 54.9067C34.4419 53.6209 36.5625 51.5267 36.5625 48.75V47.9253C38.5496 48.4625 40.5979 48.7397 42.6562 48.75C46.2983 48.75 49.5991 48.0675 52.1787 46.7817C54.7544 45.4959 56.875 43.4017 56.875 40.625V16.25C56.875 13.4733 54.7564 11.3791 52.1767 10.0933C49.6011 8.8075 46.3003 8.125 42.6562 8.125ZM42.6562 12.1875C45.7498 12.1875 48.5042 12.8538 50.3364 13.7739C52.1706 14.6941 52.8125 15.663 52.8125 16.25C52.8125 16.8391 52.1706 17.8059 50.3364 18.7261C48.5062 19.6462 45.7498 20.3125 42.6562 20.3125C39.5627 20.3125 36.8083 19.6462 34.9761 18.7261C33.1419 17.8059 32.5 16.837 32.5 16.25C32.5 15.6609 33.1419 14.6941 34.9761 13.7739C36.8062 12.8538 39.5627 12.1875 42.6562 12.1875ZM32.5 22.0269C32.7133 22.1447 32.9123 22.297 33.1358 22.4067C35.7134 23.6925 39.0142 24.375 42.6562 24.375C46.2983 24.375 49.5991 23.6925 52.1787 22.4067C52.4002 22.297 52.5992 22.1447 52.8125 22.0269V24.375C52.8125 24.9641 52.1706 25.9309 50.3364 26.8511C48.5042 27.7712 45.7498 28.4375 42.6562 28.4375C39.5627 28.4375 36.8083 27.7712 34.9761 26.8511C33.1419 25.9309 32.5 24.962 32.5 24.375V22.0269ZM22.3438 28.4375C25.4373 28.4375 28.1917 29.1038 30.0239 30.0239C31.8581 30.9441 32.5 31.913 32.5 32.5C32.5 33.0891 31.8581 34.0559 30.0239 34.9761C28.1917 35.8962 25.4373 36.5625 22.3438 36.5625C19.2502 36.5625 16.4958 35.8962 14.6636 34.9761C12.8294 34.0559 12.1875 33.087 12.1875 32.5C12.1875 31.9109 12.8294 30.9441 14.6636 30.0239C16.4937 29.1038 19.2502 28.4375 22.3438 28.4375ZM52.8125 30.1519V32.5C52.8125 33.0891 52.1706 34.0559 50.3364 34.9761C48.5042 35.8962 45.7498 36.5625 42.6562 36.5625C40.5871 36.5737 38.5295 36.2521 36.5625 35.6098V32.5C36.5625 32.238 36.4752 31.9841 36.4345 31.7383C38.3236 32.2298 40.4178 32.5 42.6562 32.5C46.2983 32.5 49.5991 31.8175 52.1787 30.5317C52.4002 30.422 52.5992 30.2697 52.8125 30.1519ZM12.1875 38.2769C12.4008 38.3947 12.5998 38.547 12.8233 38.6567C15.4009 39.9425 18.7017 40.625 22.3438 40.625C25.9858 40.625 29.2866 39.9425 31.8662 38.6567C32.0877 38.547 32.2867 38.3947 32.5 38.2769V40.625C32.5 41.2141 31.8581 42.1809 30.0239 43.1011C28.1917 44.0212 25.4373 44.6875 22.3438 44.6875C19.2502 44.6875 16.4958 44.0212 14.6636 43.1011C12.8294 42.1809 12.1875 41.212 12.1875 40.625V38.2769ZM52.8125 38.2769V40.625C52.8125 41.2141 52.1706 42.1809 50.3364 43.1011C48.5042 44.0212 45.7498 44.6875 42.6562 44.6875C40.3467 44.6875 38.2606 44.3625 36.5625 43.7978V39.8633C38.4272 40.3548 40.4584 40.625 42.6562 40.625C46.2983 40.625 49.5991 39.9425 52.1787 38.6567C52.4002 38.547 52.5992 38.3947 52.8125 38.2769ZM12.1875 46.4019C12.4008 46.5197 12.5998 46.672 12.8233 46.7817C15.4009 48.0675 18.7017 48.75 22.3438 48.75C25.9858 48.75 29.2866 48.0675 31.8662 46.7817C32.0877 46.672 32.2867 46.5197 32.5 46.4019V48.75C32.5 49.3391 31.8581 50.3059 30.0239 51.2261C28.1917 52.1462 25.4373 52.8125 22.3438 52.8125C19.2502 52.8125 16.4958 52.1462 14.6636 51.2261C12.8294 50.3059 12.1875 49.337 12.1875 48.75V46.4019Z" fill="url(#paint0_linear)"/>
<defs>
<linearGradient id="paint0_linear" x1="32.5" y1="8.125" x2="32.5" y2="56.875" gradientUnits="userSpaceOnUse">
<stop stop-color="#FF7C29"/>
<stop offset="1" stop-color="#FFDC2E"/>
</linearGradient>
</defs>
</svg>
