<svg width="534" height="421" viewBox="0 0 534 421" fill="none" xmlns="http://www.w3.org/2000/svg">
<circle cx="266.5" cy="197.5" r="177.5" fill="black"/>
<path d="M362.968 51.3581L373.679 122.968L425.765 98.0385L362.968 51.3581Z" fill="#FF8229"/>
<path d="M408.848 30.3716L363.439 51.7401L425.764 98.0388L450.694 85.5808L408.848 30.3716Z" fill="#FFAB2B"/>
<path d="M179.3 0H270.116V43.6275H179.3L138.788 24.4848L179.3 0Z" fill="#5C5B60"/>
<path d="M360.488 0H269.671V43.6275H360.488L400.999 24.4848L360.488 0Z" fill="#FFAB2B"/>
<path d="M269.671 53.8669L269.671 125.54L183.306 53.8667L269.671 53.8669Z" fill="#4E4E4E"/>
<path d="M170.841 124.782L182.861 53.8666L269.825 124.782L170.841 124.782Z" fill="#7E7F87"/>
<path d="M176.629 138.446L229.16 138.446L268.781 325.871L176.629 138.446Z" fill="#7E7F87"/>
<path d="M94.2708 103.726L162.383 136.669L238.064 291.592L94.2708 103.726Z" fill="#595A57"/>
<path d="M50.993 161.055L124.098 176.29L234.947 304.057L50.993 161.055Z" fill="#7E7F87"/>
<path d="M0 270.985L72.9021 247.964L232.276 307.173L0 270.985Z" fill="#595A57"/>
<path d="M534 270.985L461.098 247.964L301.724 307.173L534 270.985Z" fill="#FF8229"/>
<path d="M485.028 161.055L411.923 176.29L301.074 304.057L485.028 161.055Z" fill="#FFD22D"/>
<path d="M440.18 103.726L372.068 136.669L296.387 291.592L440.18 103.726Z" fill="#FF8229"/>
<path d="M360.913 138.446L308.382 138.446L268.761 325.871L360.913 138.446Z" fill="#FFD52D"/>
<path d="M307.956 138.45L269.226 138.45L268.781 324.98L307.956 138.45Z" fill="#FF8429"/>
<path d="M230.206 138.45L268.936 138.45L269.381 324.98L230.206 138.45Z" fill="#57585D"/>
<path d="M268.934 53.8669L268.934 125.54L355.299 53.8667L268.934 53.8669Z" fill="#FFD62D"/>
<path d="M367.764 124.782L355.145 53.8666L268.781 124.782L367.764 124.782Z" fill="#FFA82B"/>
<path d="M171.758 51.7041L161.047 123.314L108.961 98.3844L171.758 51.7041Z" fill="#57585D"/>
<path d="M125.878 30.7175L171.287 52.086L108.961 98.3847L84.0314 85.9267L125.878 30.7175Z" fill="#7E7F87"/>
<path d="M216.6 79.2476H276.18C289.98 79.2476 302.22 81.8276 312.9 86.9876C323.58 92.1476 331.86 99.4676 337.74 108.948C343.62 118.428 346.56 129.528 346.56 142.248C346.56 154.968 343.62 166.068 337.74 175.548C331.86 185.028 323.58 192.348 312.9 197.508C302.22 202.668 289.98 205.248 276.18 205.248H216.6V79.2476ZM274.74 176.808C285.54 176.808 294.18 173.748 300.66 167.628C307.26 161.508 310.56 153.048 310.56 142.248C310.56 131.448 307.26 122.988 300.66 116.868C294.18 110.748 285.54 107.688 274.74 107.688H252.24V176.808H274.74Z" fill="black"/>
<path d="M15.72 329.8H47.496C54.856 329.8 61.384 331.176 67.08 333.928C72.776 336.68 77.192 340.584 80.328 345.64C83.464 350.696 85.032 356.616 85.032 363.4C85.032 370.184 83.464 376.104 80.328 381.16C77.192 386.216 72.776 390.12 67.08 392.872C61.384 395.624 54.856 397 47.496 397H15.72V329.8ZM46.728 381.832C52.488 381.832 57.096 380.2 60.552 376.936C64.072 373.672 65.832 369.16 65.832 363.4C65.832 357.64 64.072 353.128 60.552 349.864C57.096 346.6 52.488 344.968 46.728 344.968H34.728V381.832H46.728ZM95.0325 329.8H114.041V397H95.0325V329.8ZM172.588 383.944H144.172L138.892 397H119.5L149.164 329.8H167.884L197.644 397H177.868L172.588 383.944ZM167.02 369.928L158.38 348.424L149.74 369.928H167.02ZM263.705 397L263.513 361.384L246.233 390.376H237.785L220.601 362.344V397H203.033V329.8H218.681L242.297 368.584L265.337 329.8H280.985L281.177 397H263.705ZM328.514 398.344C321.41 398.344 315.01 396.84 309.314 393.832C303.682 390.824 299.234 386.664 295.97 381.352C292.77 376.04 291.17 370.056 291.17 363.4C291.17 356.744 292.77 350.76 295.97 345.448C299.234 340.136 303.682 335.976 309.314 332.968C315.01 329.96 321.41 328.456 328.514 328.456C335.618 328.456 341.986 329.96 347.618 332.968C353.314 335.976 357.762 340.136 360.962 345.448C364.226 350.76 365.858 356.744 365.858 363.4C365.858 370.056 364.226 376.04 360.962 381.352C357.762 386.664 353.314 390.824 347.618 393.832C341.986 396.84 335.618 398.344 328.514 398.344ZM328.514 382.6C331.906 382.6 334.978 381.8 337.73 380.2C340.482 378.6 342.658 376.36 344.258 373.48C345.858 370.536 346.658 367.176 346.658 363.4C346.658 359.624 345.858 356.296 344.258 353.416C342.658 350.472 340.482 348.2 337.73 346.6C334.978 345 331.906 344.2 328.514 344.2C325.122 344.2 322.05 345 319.298 346.6C316.546 348.2 314.37 350.472 312.77 353.416C311.17 356.296 310.37 359.624 310.37 363.4C310.37 367.176 311.17 370.536 312.77 373.48C314.37 376.36 316.546 378.6 319.298 380.2C322.05 381.8 325.122 382.6 328.514 382.6ZM439.75 329.8V397H424.102L394.438 361.192V397H375.814V329.8H391.462L421.126 365.608V329.8H439.75ZM453.158 329.8H484.934C492.294 329.8 498.822 331.176 504.518 333.928C510.214 336.68 514.63 340.584 517.766 345.64C520.902 350.696 522.47 356.616 522.47 363.4C522.47 370.184 520.902 376.104 517.766 381.16C514.63 386.216 510.214 390.12 504.518 392.872C498.822 395.624 492.294 397 484.934 397H453.158V329.8ZM484.166 381.832C489.926 381.832 494.534 380.2 497.99 376.936C501.51 373.672 503.27 369.16 503.27 363.4C503.27 357.64 501.51 353.128 497.99 349.864C494.534 346.6 489.926 344.968 484.166 344.968H472.166V381.832H484.166Z" fill="white"/>
</svg>
