<svg width="86" height="86" viewBox="0 0 86 86" fill="none" xmlns="http://www.w3.org/2000/svg">
<g opacity="0.8">
<path d="M47.6862 42.6667L57.7292 52.7061C58.3953 53.3723 58.7695 54.2757 58.7695 55.2178C58.7695 56.1598 58.3953 57.0633 57.7292 57.7294C57.063 58.3955 56.1596 58.7697 55.2175 58.7697C54.2755 58.7697 53.372 58.3955 52.7059 57.7294L42.6665 47.6864L32.6271 57.7294C31.961 58.3955 31.0575 58.7697 30.1155 58.7697C29.1734 58.7697 28.27 58.3955 27.6039 57.7294C26.9377 57.0633 26.5635 56.1598 26.5635 55.2178C26.5635 54.7513 26.6554 54.2894 26.8339 53.8585C27.0124 53.4275 27.274 53.036 27.6039 52.7061L37.6468 42.6667L27.6039 32.6273C26.9377 31.9612 26.5635 31.0578 26.5635 30.1157C26.5635 29.6493 26.6554 29.1874 26.8339 28.7564C27.0124 28.3255 27.274 27.9339 27.6039 27.6041C27.9337 27.2743 28.3253 27.0126 28.7562 26.8341C29.1871 26.6556 29.649 26.5637 30.1155 26.5637C31.0575 26.5637 31.961 26.938 32.6271 27.6041L42.6665 37.647L52.7059 27.6041C53.372 26.938 54.2755 26.5637 55.2175 26.5637C56.1596 26.5637 57.063 26.938 57.7292 27.6041C58.3953 28.2702 58.7695 29.1737 58.7695 30.1157C58.7695 31.0578 58.3953 31.9612 57.7292 32.6273L47.6862 42.6667ZM42.6665 78.1667C23.0599 78.1667 7.1665 62.2734 7.1665 42.6667C7.1665 23.0601 23.0599 7.16675 42.6665 7.16675C62.2732 7.16675 78.1665 23.0601 78.1665 42.6667C78.1665 62.2734 62.2732 78.1667 42.6665 78.1667ZM42.6665 71.0667C50.1987 71.0667 57.4223 68.0746 62.7483 62.7486C68.0744 57.4225 71.0665 50.1989 71.0665 42.6667C71.0665 35.1346 68.0744 27.9109 62.7483 22.5849C57.4223 17.2589 50.1987 14.2667 42.6665 14.2667C35.1344 14.2667 27.9107 17.2589 22.5847 22.5849C17.2586 27.9109 14.2665 35.1346 14.2665 42.6667C14.2665 50.1989 17.2586 57.4225 22.5847 62.7486C27.9107 68.0746 35.1344 71.0667 42.6665 71.0667Z" fill="url(#paint0_linear)"/>
</g>
<defs>
<linearGradient id="paint0_linear" x1="42.6665" y1="7.16675" x2="42.6665" y2="78.1667" gradientUnits="userSpaceOnUse">
<stop stop-color="#FF7C29"/>
<stop offset="1" stop-color="#FFDC2E"/>
</linearGradient>
</defs>
</svg>
