<svg width="60" height="45" viewBox="0 0 60 45" fill="none" xmlns="http://www.w3.org/2000/svg">
<path fill-rule="evenodd" clip-rule="evenodd" d="M0 7.45833C0 5.48026 0.785787 3.5832 2.1845 2.18449C3.5832 0.785786 5.48026 0 7.45833 0H52.2083C54.1864 0 56.0835 0.785786 57.4822 2.18449C58.8809 3.5832 59.6667 5.48026 59.6667 7.45833V37.2917C59.6667 39.2697 58.8809 41.1668 57.4822 42.5655C56.0835 43.9642 54.1864 44.75 52.2083 44.75H7.45833C5.48026 44.75 3.5832 43.9642 2.1845 42.5655C0.785787 41.1668 0 39.2697 0 37.2917V7.45833ZM7.45833 3.72917C6.4693 3.72917 5.52077 4.12206 4.82141 4.82141C4.12206 5.52077 3.72917 6.4693 3.72917 7.45833V11.1875H55.9375V7.45833C55.9375 6.4693 55.5446 5.52077 54.8453 4.82141C54.1459 4.12206 53.1974 3.72917 52.2083 3.72917H7.45833ZM55.9375 18.6458H3.72917V37.2917C3.72917 38.2807 4.12206 39.2292 4.82141 39.9286C5.52077 40.6279 6.4693 41.0208 7.45833 41.0208H52.2083C53.1974 41.0208 54.1459 40.6279 54.8453 39.9286C55.5446 39.2292 55.9375 38.2807 55.9375 37.2917V18.6458Z" fill="url(#paint0_linear)"/>
<path d="M7.45801 29.8333C7.45801 28.8443 7.8509 27.8957 8.55026 27.1964C9.24961 26.497 10.1981 26.1041 11.1872 26.1041H14.9163C15.9054 26.1041 16.8539 26.497 17.5533 27.1964C18.2526 27.8957 18.6455 28.8443 18.6455 29.8333V33.5625C18.6455 34.5515 18.2526 35.5 17.5533 36.1994C16.8539 36.8987 15.9054 37.2916 14.9163 37.2916H11.1872C10.1981 37.2916 9.24961 36.8987 8.55026 36.1994C7.8509 35.5 7.45801 34.5515 7.45801 33.5625V29.8333Z" fill="url(#paint1_linear)"/>
<defs>
<linearGradient id="paint0_linear" x1="29.8333" y1="0" x2="29.8333" y2="44.75" gradientUnits="userSpaceOnUse">
<stop stop-color="#FF7C29"/>
<stop offset="1" stop-color="#FFDC2E"/>
</linearGradient>
<linearGradient id="paint1_linear" x1="13.0518" y1="26.1041" x2="13.0518" y2="37.2916" gradientUnits="userSpaceOnUse">
<stop stop-color="#FF7C29"/>
<stop offset="1" stop-color="#FFDC2E"/>
</linearGradient>
</defs>
</svg>
