<svg width="64" height="64" viewBox="0 0 64 64" fill="none" xmlns="http://www.w3.org/2000/svg">
<path d="M4 44H60V48H4V44Z" fill="url(#paint0_linear)"/>
<path d="M4 52H60V56H4V52Z" fill="url(#paint1_linear)"/>
<path d="M48 20C47.2089 20 46.4355 20.2346 45.7777 20.6741C45.1199 21.1136 44.6072 21.7384 44.3045 22.4693C44.0017 23.2002 43.9225 24.0044 44.0769 24.7804C44.2312 25.5563 44.6122 26.269 45.1716 26.8284C45.731 27.3878 46.4437 27.7688 47.2196 27.9231C47.9956 28.0775 48.7998 27.9983 49.5307 27.6955C50.2616 27.3928 50.8864 26.8801 51.3259 26.2223C51.7654 25.5645 52 24.7911 52 24C52 22.9391 51.5786 21.9217 50.8284 21.1716C50.0783 20.4214 49.0609 20 48 20Z" fill="url(#paint2_linear)"/>
<path d="M32 32C30.4178 32 28.871 31.5308 27.5554 30.6518C26.2398 29.7727 25.2145 28.5233 24.609 27.0615C24.0035 25.5997 23.845 23.9911 24.1537 22.4393C24.4624 20.8874 25.2243 19.462 26.3431 18.3431C27.462 17.2243 28.8874 16.4624 30.4393 16.1537C31.9911 15.845 33.5997 16.0035 35.0615 16.609C36.5233 17.2145 37.7727 18.2398 38.6518 19.5554C39.5308 20.871 40 22.4178 40 24C39.9974 26.1209 39.1536 28.1542 37.6539 29.6539C36.1542 31.1536 34.1209 31.9974 32 32ZM32 20C31.2089 20 30.4355 20.2346 29.7777 20.6741C29.1199 21.1137 28.6072 21.7384 28.3045 22.4693C28.0017 23.2002 27.9225 24.0044 28.0769 24.7804C28.2312 25.5563 28.6122 26.269 29.1716 26.8284C29.731 27.3878 30.4437 27.7688 31.2196 27.9231C31.9956 28.0775 32.7998 27.9983 33.5307 27.6955C34.2616 27.3928 34.8864 26.8801 35.3259 26.2223C35.7654 25.5645 36 24.7911 36 24C35.9989 22.9395 35.5772 21.9227 34.8273 21.1727C34.0773 20.4228 33.0605 20.0011 32 20Z" fill="url(#paint3_linear)"/>
<path d="M16 20C15.2089 20 14.4355 20.2346 13.7777 20.6741C13.1199 21.1136 12.6072 21.7384 12.3045 22.4693C12.0017 23.2002 11.9225 24.0044 12.0769 24.7804C12.2312 25.5563 12.6122 26.269 13.1716 26.8284C13.731 27.3878 14.4437 27.7688 15.2196 27.9231C15.9956 28.0775 16.7998 27.9983 17.5307 27.6955C18.2616 27.3928 18.8864 26.8801 19.3259 26.2223C19.7654 25.5645 20 24.7911 20 24C20 22.9391 19.5786 21.9217 18.8284 21.1716C18.0783 20.4214 17.0609 20 16 20Z" fill="url(#paint4_linear)"/>
<path d="M56 40H8C6.93995 39.9974 5.92406 39.5751 5.17449 38.8255C4.42492 38.0759 4.00264 37.0601 4 36V12C4.00264 10.9399 4.42492 9.92406 5.17449 9.17449C5.92406 8.42492 6.93995 8.00264 8 8H56C57.0601 8.00264 58.0759 8.42492 58.8255 9.17449C59.5751 9.92406 59.9974 10.9399 60 12V36C59.9984 37.0604 59.5765 38.0769 58.8267 38.8267C58.0769 39.5765 57.0604 39.9984 56 40ZM56 12H8V36H56V12Z" fill="url(#paint5_linear)"/>
<defs>
<linearGradient id="paint0_linear" x1="32" y1="44" x2="32" y2="48" gradientUnits="userSpaceOnUse">
<stop stop-color="#FF7C29"/>
<stop offset="1" stop-color="#FFDC2E"/>
</linearGradient>
<linearGradient id="paint1_linear" x1="32" y1="52" x2="32" y2="56" gradientUnits="userSpaceOnUse">
<stop stop-color="#FF7C29"/>
<stop offset="1" stop-color="#FFDC2E"/>
</linearGradient>
<linearGradient id="paint2_linear" x1="48" y1="20" x2="48" y2="28" gradientUnits="userSpaceOnUse">
<stop stop-color="#FF7C29"/>
<stop offset="1" stop-color="#FFDC2E"/>
</linearGradient>
<linearGradient id="paint3_linear" x1="32" y1="16" x2="32" y2="32" gradientUnits="userSpaceOnUse">
<stop stop-color="#FF7C29"/>
<stop offset="1" stop-color="#FFDC2E"/>
</linearGradient>
<linearGradient id="paint4_linear" x1="16" y1="20" x2="16" y2="28" gradientUnits="userSpaceOnUse">
<stop stop-color="#FF7C29"/>
<stop offset="1" stop-color="#FFDC2E"/>
</linearGradient>
<linearGradient id="paint5_linear" x1="32" y1="8" x2="32" y2="40" gradientUnits="userSpaceOnUse">
<stop stop-color="#FF7C29"/>
<stop offset="1" stop-color="#FFDC2E"/>
</linearGradient>
</defs>
</svg>
