<svg width="78" height="78" viewBox="0 0 78 78" fill="none" xmlns="http://www.w3.org/2000/svg">
<path d="M51.1875 9.75C46.8171 9.75 42.8561 10.569 39.7605 12.1119C36.6673 13.6549 34.125 16.1679 34.125 19.5V29.25C34.125 29.5644 34.2298 29.8691 34.2786 30.1641C31.8387 29.5441 29.3299 29.2369 26.8125 29.25C22.4421 29.25 18.4811 30.069 15.3855 31.6119C12.2923 33.1549 9.75 35.6679 9.75 39V58.5C9.75 61.8321 12.2923 64.3451 15.3879 65.8881C18.4811 67.431 22.4421 68.25 26.8125 68.25C31.1829 68.25 35.1439 67.431 38.2395 65.8881C41.3302 64.3451 43.875 61.8321 43.875 58.5V57.5104C46.2595 58.155 48.7175 58.4876 51.1875 58.5C55.5579 58.5 59.5189 57.681 62.6145 56.1381C65.7052 54.5951 68.25 52.0821 68.25 48.75V19.5C68.25 16.1679 65.7077 13.6549 62.6121 12.1119C59.5213 10.569 55.5604 9.75 51.1875 9.75ZM51.1875 14.625C54.8998 14.625 58.2051 15.4245 60.4037 16.5287C62.6048 17.6329 63.375 18.7956 63.375 19.5C63.375 20.2069 62.6048 21.3671 60.4037 22.4713C58.2075 23.5755 54.8998 24.375 51.1875 24.375C47.4752 24.375 44.1699 23.5755 41.9713 22.4713C39.7703 21.3671 39 20.2044 39 19.5C39 18.7931 39.7703 17.6329 41.9713 16.5287C44.1675 15.4245 47.4752 14.625 51.1875 14.625ZM39 26.4322C39.2559 26.5736 39.4948 26.7564 39.7629 26.8881C42.8561 28.431 46.8171 29.25 51.1875 29.25C55.5579 29.25 59.5189 28.431 62.6145 26.8881C62.8802 26.7564 63.1191 26.5736 63.375 26.4322V29.25C63.375 29.9569 62.6048 31.1171 60.4037 32.2213C58.2051 33.3255 54.8998 34.125 51.1875 34.125C47.4752 34.125 44.1699 33.3255 41.9713 32.2213C39.7703 31.1171 39 29.9544 39 29.25V26.4322ZM26.8125 34.125C30.5248 34.125 33.8301 34.9245 36.0287 36.0287C38.2297 37.1329 39 38.2956 39 39C39 39.7069 38.2297 40.8671 36.0287 41.9713C33.8301 43.0755 30.5248 43.875 26.8125 43.875C23.1002 43.875 19.7949 43.0755 17.5963 41.9713C15.3952 40.8671 14.625 39.7044 14.625 39C14.625 38.2931 15.3952 37.1329 17.5963 36.0287C19.7925 34.9245 23.1002 34.125 26.8125 34.125ZM63.375 36.1822V39C63.375 39.7069 62.6048 40.8671 60.4037 41.9713C58.2051 43.0755 54.8998 43.875 51.1875 43.875C48.7045 43.8885 46.2354 43.5025 43.875 42.7318V39C43.875 38.6856 43.7702 38.3809 43.7214 38.0859C45.9883 38.6758 48.5014 39 51.1875 39C55.5579 39 59.5189 38.181 62.6145 36.6381C62.8802 36.5064 63.1191 36.3236 63.375 36.1822ZM14.625 45.9323C14.8809 46.0736 15.1198 46.2564 15.3879 46.3881C18.4811 47.931 22.4421 48.75 26.8125 48.75C31.1829 48.75 35.1439 47.931 38.2395 46.3881C38.5052 46.2564 38.7441 46.0736 39 45.9323V48.75C39 49.4569 38.2297 50.6171 36.0287 51.7213C33.8301 52.8255 30.5248 53.625 26.8125 53.625C23.1002 53.625 19.7949 52.8255 17.5963 51.7213C15.3952 50.6171 14.625 49.4544 14.625 48.75V45.9323ZM63.375 45.9323V48.75C63.375 49.4569 62.6048 50.6171 60.4037 51.7213C58.2051 52.8255 54.8998 53.625 51.1875 53.625C48.4161 53.625 45.9128 53.235 43.875 52.5574V47.8359C46.1126 48.4258 48.5501 48.75 51.1875 48.75C55.5579 48.75 59.5189 47.931 62.6145 46.3881C62.8802 46.2564 63.1191 46.0736 63.375 45.9323ZM14.625 55.6823C14.8809 55.8236 15.1198 56.0064 15.3879 56.1381C18.4811 57.681 22.4421 58.5 26.8125 58.5C31.1829 58.5 35.1439 57.681 38.2395 56.1381C38.5052 56.0064 38.7441 55.8236 39 55.6823V58.5C39 59.2069 38.2297 60.3671 36.0287 61.4713C33.8301 62.5755 30.5248 63.375 26.8125 63.375C23.1002 63.375 19.7949 62.5755 17.5963 61.4713C15.3952 60.3671 14.625 59.2044 14.625 58.5V55.6823Z" fill="url(#paint0_linear)"/>
<defs>
<linearGradient id="paint0_linear" x1="39" y1="9.75" x2="39" y2="68.25" gradientUnits="userSpaceOnUse">
<stop stop-color="#FF7C29"/>
<stop offset="1" stop-color="#FFDC2E"/>
</linearGradient>
</defs>
</svg>
