<svg width="78" height="78" viewBox="0 0 78 78" fill="none" xmlns="http://www.w3.org/2000/svg">
<path fill-rule="evenodd" clip-rule="evenodd" d="M39 73.125C48.0505 73.125 56.7303 69.5297 63.13 63.13C69.5297 56.7303 73.125 48.0505 73.125 39C73.125 29.9495 69.5297 21.2697 63.13 14.87C56.7303 8.4703 48.0505 4.875 39 4.875C29.9495 4.875 21.2697 8.4703 14.87 14.87C8.4703 21.2697 4.875 29.9495 4.875 39C4.875 48.0505 8.4703 56.7303 14.87 63.13C21.2697 69.5297 29.9495 73.125 39 73.125ZM39 78C49.3434 78 59.2632 73.8911 66.5772 66.5772C73.8911 59.2632 78 49.3434 78 39C78 28.6566 73.8911 18.7368 66.5772 11.4228C59.2632 4.10892 49.3434 0 39 0C28.6566 0 18.7368 4.10892 11.4228 11.4228C4.10892 18.7368 0 28.6566 0 39C0 49.3434 4.10892 59.2632 11.4228 66.5772C18.7368 73.8911 28.6566 78 39 78Z" fill="url(#paint0_linear)"/>
<path fill-rule="evenodd" clip-rule="evenodd" d="M53.4795 24.2288C54.1617 23.5525 55.0827 23.1719 56.0434 23.1692C57.004 23.1666 57.9271 23.5421 58.6131 24.2146C59.2991 24.8871 59.6928 25.8026 59.7092 26.7631C59.7256 27.7236 59.3632 28.652 58.7006 29.3475L39.2396 53.6738C38.9051 54.034 38.5014 54.3231 38.0527 54.5238C37.6039 54.7245 37.1193 54.8326 36.6278 54.8417C36.1363 54.8508 35.648 54.7607 35.1921 54.5768C34.7363 54.3929 34.3222 54.1189 33.9746 53.7713L21.0802 40.872C20.721 40.5373 20.4329 40.1336 20.233 39.6851C20.0332 39.2366 19.9257 38.7525 19.9171 38.2616C19.9084 37.7706 19.9987 37.283 20.1826 36.8277C20.3665 36.3725 20.6402 35.9589 20.9874 35.6117C21.3346 35.2645 21.7482 34.9908 22.2034 34.8069C22.6587 34.623 23.1463 34.5327 23.6373 34.5414C24.1282 34.55 24.6123 34.6575 25.0608 34.8573C25.5093 35.0572 25.913 35.3453 26.2477 35.7045L36.456 45.9079L53.3868 24.336C53.417 24.2983 53.4496 24.2624 53.4843 24.2288H53.4795Z" fill="url(#paint1_linear)"/>
<defs>
<linearGradient id="paint0_linear" x1="39" y1="0" x2="39" y2="78" gradientUnits="userSpaceOnUse">
<stop stop-color="#FF7C29"/>
<stop offset="1" stop-color="#FFDC2E"/>
</linearGradient>
<linearGradient id="paint1_linear" x1="39.8131" y1="23.1692" x2="39.8131" y2="54.8423" gradientUnits="userSpaceOnUse">
<stop stop-color="#FF7C29"/>
<stop offset="1" stop-color="#FFDC2E"/>
</linearGradient>
</defs>
</svg>
