<svg width="49" height="49" viewBox="0 0 49 49" fill="none" xmlns="http://www.w3.org/2000/svg">
<path fill-rule="evenodd" clip-rule="evenodd" d="M0 12.25C0 10.6255 0.645311 9.06763 1.79397 7.91897C2.94263 6.77031 4.50055 6.125 6.125 6.125H42.875C44.4995 6.125 46.0574 6.77031 47.206 7.91897C48.3547 9.06763 49 10.6255 49 12.25V36.75C49 38.3745 48.3547 39.9324 47.206 41.081C46.0574 42.2297 44.4995 42.875 42.875 42.875H6.125C4.50055 42.875 2.94263 42.2297 1.79397 41.081C0.645311 39.9324 0 38.3745 0 36.75V12.25ZM6.125 9.1875C5.31277 9.1875 4.53382 9.51016 3.95949 10.0845C3.38516 10.6588 3.0625 11.4378 3.0625 12.25V15.3125H45.9375V12.25C45.9375 11.4378 45.6148 10.6588 45.0405 10.0845C44.4662 9.51016 43.6872 9.1875 42.875 9.1875H6.125ZM45.9375 21.4375H3.0625V36.75C3.0625 37.5622 3.38516 38.3412 3.95949 38.9155C4.53382 39.4898 5.31277 39.8125 6.125 39.8125H42.875C43.6872 39.8125 44.4662 39.4898 45.0405 38.9155C45.6148 38.3412 45.9375 37.5622 45.9375 36.75V21.4375Z" fill="url(#paint0_linear)"/>
<path d="M6.125 30.625C6.125 29.8128 6.44766 29.0338 7.02199 28.4595C7.59632 27.8852 8.37527 27.5625 9.1875 27.5625H12.25C13.0622 27.5625 13.8412 27.8852 14.4155 28.4595C14.9898 29.0338 15.3125 29.8128 15.3125 30.625V33.6875C15.3125 34.4997 14.9898 35.2787 14.4155 35.853C13.8412 36.4273 13.0622 36.75 12.25 36.75H9.1875C8.37527 36.75 7.59632 36.4273 7.02199 35.853C6.44766 35.2787 6.125 34.4997 6.125 33.6875V30.625Z" fill="url(#paint1_linear)"/>
<defs>
<linearGradient id="paint0_linear" x1="24.5" y1="6.125" x2="24.5" y2="42.875" gradientUnits="userSpaceOnUse">
<stop stop-color="#FF7C29"/>
<stop offset="1" stop-color="#FFDC2E"/>
</linearGradient>
<linearGradient id="paint1_linear" x1="10.7188" y1="27.5625" x2="10.7188" y2="36.75" gradientUnits="userSpaceOnUse">
<stop stop-color="#FF7C29"/>
<stop offset="1" stop-color="#FFDC2E"/>
</linearGradient>
</defs>
</svg>
