<svg width="30" height="30" viewBox="0 0 30 30" fill="none" xmlns="http://www.w3.org/2000/svg">
<path d="M6.22527 0H23.7747L30 8.79947L15 30L0 8.79947L6.22527 0ZM12.8653 1.57895L10.1563 7.89474H19.8436L17.1347 1.57895H12.8653ZM9.93778 9.47368L15 24.8905L20.0606 9.47368H9.93937H9.93778ZM2.58775 7.89474H8.42374L11.1327 1.57895H7.05488L2.58775 7.89474ZM2.42502 9.47368L13.3137 24.8637L8.26101 9.47368H2.42502ZM27.4123 7.89474L22.9451 1.57895H18.8673L21.5763 7.89474H27.4123ZM27.575 9.47368H21.739L16.6863 24.8637L27.575 9.47368Z" fill="url(#paint0_linear)"/>
<defs>
<linearGradient id="paint0_linear" x1="15" y1="0" x2="15" y2="30" gradientUnits="userSpaceOnUse">
<stop stop-color="#FF7C29"/>
<stop offset="1" stop-color="#FFDC2E"/>
</linearGradient>
</defs>
</svg>
