<svg width="1500" height="1118" viewBox="0 0 1500 1118" fill="none" xmlns="http://www.w3.org/2000/svg">
<g opacity="0.7">
<path d="M1016.36 145.99L1046.63 348.363L1193.83 277.91L1016.36 145.99Z" fill="#FF8229"/>
<path d="M1146.02 86.6813L1017.7 147.069L1193.83 277.91L1264.28 242.704L1146.02 86.6813Z" fill="#FFAB2B"/>
<path d="M497.312 0.850586H753.962V124.143H497.312L382.827 70.0453L497.312 0.850586Z" fill="#5C5B60"/>
<path d="M1009.35 0.850708H752.704V124.143H1009.35L1123.84 70.0454L1009.35 0.850708Z" fill="#FFAB2B"/>
<path d="M752.704 153.08L752.704 355.631L508.636 153.079L752.704 153.08Z" fill="#4E4E4E"/>
<path d="M473.409 353.489L507.377 153.079L753.138 353.488L473.409 353.489Z" fill="#7E7F87"/>
<path d="M489.765 392.101L638.219 392.101L750.189 921.769L489.765 392.101Z" fill="#7E7F87"/>
<path d="M257.019 293.982L449.506 387.081L663.381 824.895L257.019 293.982Z" fill="#595A57"/>
<path d="M134.715 455.996L341.311 499.052L654.574 860.124L134.715 455.996Z" fill="#7E7F87"/>
<path d="M-9.39197 766.66L196.631 701.604L647.026 868.93L-9.39197 766.66Z" fill="#595A57"/>
<path opacity="0.2" d="M1499.7 766.66L1293.68 701.604L843.287 868.93L1499.7 766.66Z" fill="#FF8229"/>
<path opacity="0.2" d="M1361.31 455.996L1154.71 499.052L841.449 860.124L1361.31 455.996Z" fill="#FFD22D"/>
<path d="M1234.57 293.983L1042.08 387.081L828.205 824.896L1234.57 293.983Z" fill="#FF8229"/>
<path d="M1010.56 392.101L862.103 392.101L750.133 921.769L1010.56 392.101Z" fill="#FFD52D"/>
<path d="M860.9 392.115L751.446 392.115L750.188 919.252L860.9 392.115Z" fill="#FF8429"/>
<path d="M641.174 392.114L750.628 392.115L751.886 919.252L641.174 392.114Z" fill="#57585D"/>
<path d="M750.623 153.08L750.623 355.631L994.691 153.08L750.623 153.08Z" fill="#FFD62D"/>
<path d="M1029.92 353.489L994.257 153.079L750.189 353.488L1029.92 353.489Z" fill="#FFA82B"/>
<path d="M476 146.968L445.731 349.341L298.535 278.888L476 146.968Z" fill="#57585D"/>
<path d="M346.342 87.6589L474.667 148.047L298.535 278.888L228.082 243.681L346.342 87.6589Z" fill="#7E7F87"/>
</g>
</svg>
